<svg id="Calque_1" data-name="Calque 1" xmlns="http://www.w3.org/2000/svg" viewBox="0 0 43.07 41.42"><defs><style>.cls-1{fill:#fff;}</style></defs><title>Imovie</title><g id="mp08qk.tif"><path class="cls-1" d="M28.23,7.42H49.66V48.84H6.59V23.18a8,8,0,0,0,.65.65q5.4,4.25,10.81,8.48a.65.65,0,0,1,.27.84c-1.56,4.61-3.09,9.23-4.63,13.85-.18.52-.44,1.07.14,1.49s1,0,1.44-.29q6.18-4.26,12.36-8.52a.63.63,0,0,1,.85,0c3.1,2.15,6.21,4.28,9.32,6.42,1.13.78,2.25,1.56,3.39,2.33.55.37,1.15.28,1.34-.24a1.57,1.57,0,0,0,0-1q-2.33-7.05-4.69-14.09a.57.57,0,0,1,.23-.77c1.4-1.07,2.78-2.18,4.17-3.27L49,23.71a.89.89,0,0,0,.43-1.05c-.17-.52-.57-.61-1.06-.61H33.83c-.08-.21-.16-.4-.22-.6C32.07,17.1,30.52,12.74,29,8.38A1.5,1.5,0,0,0,28.23,7.42Z" transform="translate(-6.59 -7.42)"/><path class="cls-1" d="M6.59,22.67V7.42H27.92a1.4,1.4,0,0,0-.78.88c-1.55,4.43-3.12,8.85-4.66,13.28a.61.61,0,0,1-.69.48c-4.67,0-9.34,0-14,0A1.17,1.17,0,0,0,6.59,22.67Z" transform="translate(-6.59 -7.42)"/><path class="cls-1" d="M6.59,22.67A1.17,1.17,0,0,1,7.78,22c4.67,0,9.34,0,14,0a.61.61,0,0,0,.69-.48C24,17.15,25.59,12.73,27.14,8.3a1.4,1.4,0,0,1,.78-.88h.31a1.5,1.5,0,0,1,.77,1c1.52,4.36,3.07,8.72,4.61,13.07.06.2.14.39.22.6H48.41c.49,0,.89.09,1.06.61A.89.89,0,0,1,49,23.71L42.2,29.08c-1.39,1.09-2.77,2.2-4.17,3.27a.57.57,0,0,0-.23.77q2.37,7,4.69,14.09a1.57,1.57,0,0,1,0,1c-.19.52-.79.61-1.34.24-1.14-.77-2.26-1.55-3.39-2.33-3.11-2.14-6.22-4.27-9.32-6.42a.63.63,0,0,0-.85,0Q21.47,44,15.27,48.2c-.44.31-.89.69-1.44.29s-.32-1-.14-1.49c1.54-4.62,3.07-9.24,4.63-13.85a.65.65,0,0,0-.27-.84q-5.42-4.23-10.81-8.48a8,8,0,0,1-.65-.65ZM40.14,45.62c-.08-.28-.11-.41-.16-.54L35.92,32.89c-.24-.72-.18-.9.41-1.37L45,24.72l1.16-.94H33.5c-.72,0-.94-.16-1.18-.82L29.17,14c-.36-1-.71-2-1.1-3.11-.11.26-.18.44-.24.61l-4,11.28c-.3.84-.46,1-1.35,1H10.66l-.63,0,.38.34,9.27,7.28c.72.56.77.74.47,1.63q-1.37,4.06-2.72,8.14c-.48,1.44-1,2.88-1.47,4.43l.51-.33q5.46-3.75,10.93-7.52a1,1,0,0,1,1.27,0l6.74,4.64Z" transform="translate(-6.59 -7.42)"/><path class="cls-1" d="M40.14,45.62l-4.73-3.24-6.74-4.64a1,1,0,0,0-1.27,0q-5.46,3.78-10.93,7.52l-.51.33c.51-1.55,1-3,1.47-4.43q1.35-4.08,2.72-8.14c.3-.89.25-1.07-.47-1.63l-9.27-7.28L10,23.8l.63,0H22.5c.89,0,1.05-.12,1.35-1l4-11.28c.06-.17.13-.35.24-.61.39,1.09.74,2.1,1.1,3.11L32.32,23c.24.66.46.82,1.18.82H46.15L45,24.72l-8.66,6.8c-.59.47-.65.65-.41,1.37L40,45.08C40,45.21,40.06,45.34,40.14,45.62Zm-7.79-16.7c0-.6,0-1.1,0-1.59a1.73,1.73,0,0,0-1.78-1.85c-2.25,0-4.5,0-6.75,0a1.72,1.72,0,0,0-1.74,1.39c0,.11-.06.22-.08.32-.68,0-.76.09-.8.52-.09,1,0,1.1.85,1.29v3.23a1.73,1.73,0,0,0,1.79,1.84q3.38,0,6.75,0a1.72,1.72,0,0,0,1.76-1.81c0-.51,0-1,0-1.62l2.55,1.68V27.23Z" transform="translate(-6.59 -7.42)"/><path class="cls-1" d="M32.35,28.92l2.55-1.69v5.09l-2.55-1.68c0,.61,0,1.11,0,1.62a1.72,1.72,0,0,1-1.76,1.81q-3.37,0-6.75,0a1.73,1.73,0,0,1-1.79-1.84V29c-.89-.19-.94-.27-.85-1.29,0-.43.12-.49.8-.52,0-.1.05-.21.08-.32a1.72,1.72,0,0,1,1.74-1.39c2.25,0,4.5,0,6.75,0a1.73,1.73,0,0,1,1.78,1.85C32.36,27.82,32.35,28.32,32.35,28.92Zm-1.76,3.41V27.24H23.8v5.09Z" transform="translate(-6.59 -7.42)"/><path class="cls-1" d="M30.59,32.33H23.8V27.24h6.79Z" transform="translate(-6.59 -7.42)"/></g></svg>