<svg id="Calque_1" data-name="Calque 1" xmlns="http://www.w3.org/2000/svg" viewBox="0 0 363.76 283.91"><defs><style>.cls-1{fill:#2b3e54;opacity:0.2;}.cls-2,.cls-3{fill:#4c5b6d;}.cls-2{opacity:0.11;}.cls-3{opacity:0.26;}.cls-4{fill:#828b99;}.cls-5{fill:#002343;}.cls-6{fill:#fff;}.cls-7{fill:#f7f8f5;}</style></defs><title>Moonlight</title><circle class="cls-1" cx="184.02" cy="141.96" r="141.96"/><ellipse class="cls-2" cx="184.02" cy="141.96" rx="127.84" ry="125.34"/><circle class="cls-3" cx="184.02" cy="141.96" r="109.1"/><rect class="cls-4" x="78.61" y="38.56" width="59.52" height="9.23" rx="4.61"/><rect class="cls-4" x="37.7" y="72.21" width="15.2" height="8.14" rx="4.07"/><rect class="cls-4" x="63.76" y="55.38" width="84.89" height="9.77" rx="4.89"/><rect class="cls-4" x="57.25" y="72.21" width="87.94" height="8.14" rx="4.07"/><rect class="cls-4" x="57.25" y="90.13" width="91.41" height="8.14" rx="4.07"/><rect class="cls-4" x="19.79" y="106.41" width="88.58" height="9.23" rx="4.61"/><path class="cls-4" d="M105.92,103.41s12.51,5.83,1.36,10.66,37.05,1.24,37.05,1.24l7.07-14.57Z" transform="translate(-39.19 -6.54)"/><path class="cls-4" d="M131.69,85.57s12.52,6-.49,12.27,23.79,2.9,23.79,2.9l5.33-16.91Z" transform="translate(-39.19 -6.54)"/><path class="cls-4" d="M144.37,69.33s7.65,7.32-1.15,10.78,16.23.87,16.23.87-8.92-6.19-1.11-11.65S144.37,69.33,144.37,69.33Z" transform="translate(-39.19 -6.54)"/><circle class="cls-4" cx="66.41" cy="43.81" r="4.58"/><rect class="cls-4" x="161.03" y="6.44" width="78.82" height="7.29" rx="3.65"/><path class="cls-4" d="M237.36,16.63s9.12,8.21,0,10.26,28.71,1.36,28.71,1.36-7.29-3,0-10.48S237.36,16.63,237.36,16.63Z" transform="translate(-39.19 -6.54)"/><rect class="cls-4" x="191.79" y="20.8" width="95.68" height="7.29" rx="3.65"/><path class="cls-4" d="M259,31s9.56,5.92,0,10.7,32.19.65,32.19.65S281.33,41,290,31C287.48,28.36,259,31,259,31Z" transform="translate(-39.19 -6.54)"/><rect class="cls-4" x="188.77" y="34.69" width="67.49" height="6.15" rx="3.08"/><rect class="cls-4" x="172.17" y="34.69" width="13.47" height="6.15" rx="3.08"/><path class="cls-4" d="M267,44.31s6.22,7.17,0,10,12,1.42,12,1.42a8.21,8.21,0,0,1-.23-10.65C283.15,39.19,267,44.31,267,44.31Z" transform="translate(-39.19 -6.54)"/><rect class="cls-4" x="193.38" y="47.79" width="78.82" height="7.6" rx="3.8"/><rect class="cls-4" x="215.94" y="61.35" width="39.18" height="6.52" rx="3.26"/><rect class="cls-4" x="277.45" y="47.79" width="14.12" height="7.6" rx="3.8"/><rect class="cls-5" x="40.37" y="168.44" width="71.83" height="8.65" rx="4.33"/><rect class="cls-5" y="185.33" width="17.71" height="7.83" rx="3.91"/><rect class="cls-5" x="23.48" y="185.33" width="88.01" height="7.83" rx="3.91"/><rect class="cls-5" x="40.37" y="202.22" width="100.52" height="7.83" rx="3.91"/><rect class="cls-5" x="2.06" y="219.11" width="116.5" height="8.24" rx="4.12"/><rect class="cls-5" x="61.84" y="234.71" width="95.94" height="9.54" rx="4.77"/><path class="cls-5" d="M101,195.79s6.63,8.45,0,14.63,13.08,3.44,13.08,3.44-7.36-9.62-2-18.07S101,195.79,101,195.79Z" transform="translate(-39.19 -6.54)"/><path class="cls-5" d="M88.63,228.13s10.71-9.06,0-15.45,35.43,0,35.43,0-7.42,9.68,0,15.45S88.63,228.13,88.63,228.13Z" transform="translate(-39.19 -6.54)"/><path class="cls-5" d="M149,246s-4.63-12.12,0-16.24-33.52,0-33.52,0,7.49,11.95,0,14.42S149,246,149,246Z" transform="translate(-39.19 -6.54)"/><rect class="cls-5" x="166.02" y="244.24" width="18" height="8.65" rx="4.33"/><rect class="cls-5" x="206.39" y="258.25" width="61.79" height="9.04" rx="4.52"/><rect class="cls-5" x="189.99" y="244.24" width="94.52" height="6.81" rx="3.41"/><rect class="cls-5" x="206.39" y="224.15" width="85.09" height="10.56" rx="5.28"/><rect class="cls-5" x="297.84" y="224.15" width="19.36" height="10.56" rx="5.28"/><rect class="cls-5" x="224.1" y="207.92" width="60.41" height="8.31" rx="4.15"/><rect class="cls-5" x="231.51" y="191.87" width="91.87" height="9.68" rx="4.84"/><path class="cls-5" d="M313.43,203.25s-3.84,11.22,0,15.37-42.72,0-42.72,0l8.85-15.37Z" transform="translate(-39.19 -6.54)"/><path class="cls-5" d="M288.13,236s-10.83-10.79,2.36-17.35-19.78,0-19.78,0L255.13,233.9Z" transform="translate(-39.19 -6.54)"/><path class="cls-5" d="M261.71,252.44c1.59-1.65,14.89-2.82,0-15.42-6.58-7.24,17.85,1.41,17.85,1.41s-6.61,8.84,0,14S261.71,252.44,261.71,252.44Z" transform="translate(-39.19 -6.54)"/><circle class="cls-5" cx="277.45" cy="262.77" r="4.84"/><rect class="cls-5" x="248.94" y="93.97" width="79.39" height="8.15" rx="4.08"/><rect class="cls-5" x="254.4" y="109.91" width="46.32" height="8.3" rx="4.15"/><rect class="cls-5" x="264.06" y="126.51" width="57.26" height="8.6" rx="4.3"/><rect class="cls-5" x="259.12" y="144.96" width="45.32" height="6.59" rx="3.3"/><rect class="cls-5" x="311.82" y="144.96" width="25.57" height="6.59" rx="3.3"/><rect class="cls-5" x="259.12" y="160.76" width="86.51" height="7.68" rx="3.09"/><rect class="cls-5" x="351.81" y="160.76" width="11.95" height="7.68" rx="3.84"/><path class="cls-5" d="M316.76,104.59s11.44,6.94,0,16c-5.71,6.92,18.63,0,18.63,0s-10.71-8.55,0-16S316.76,104.59,316.76,104.59Z" transform="translate(-39.19 -6.54)"/><path class="cls-5" d="M321.48,171.15s9.79-7.7-.51-16.35c-2.29-3.29,16.07,0,16.07,0s-10.3,8.87,0,16.35S321.48,171.15,321.48,171.15Z" transform="translate(-39.19 -6.54)"/><circle class="cls-6" cx="181.48" cy="141.96" r="92.75"/><circle class="cls-7" cx="137.33" cy="112.74" r="18.77"/><circle class="cls-7" cx="180.47" cy="118.21" r="8.3"/><circle class="cls-7" cx="176.94" cy="82.98" r="13.04"/></svg>