<?xml version="1.0" encoding="utf-8"?>
<!-- Generator: Adobe Illustrator 23.0.0, SVG Export Plug-In . SVG Version: 6.00 Build 0)  -->
<svg version="1.1" id="Calque_1" xmlns="http://www.w3.org/2000/svg" xmlns:xlink="http://www.w3.org/1999/xlink" x="0px" y="0px"
	 viewBox="0 0 363.8 283.9" style="enable-background:new 0 0 363.8 283.9;" xml:space="preserve">
<style type="text/css">
	.st0{opacity:0.2;fill:#2B3E54;enable-background:new    ;}
	.st1{opacity:0.11;fill:#4C5B6D;enable-background:new    ;}
	.st2{opacity:0.26;fill:#4C5B6D;enable-background:new    ;}
	.st3{fill:#828B99;}
	.st4{fill:#002343;}
	.st5{fill:#FFFFFF;}
	.st6{fill:#F7F8F5;}
</style>
<title>Moonlight</title>
<circle class="st0" cx="184" cy="142" r="142"/>
<ellipse class="st1" cx="184" cy="142" rx="127.8" ry="125.3"/>
<circle class="st2" cx="184" cy="142" r="109.1"/>
<path class="st3" d="M83.2,38.6h50.3c2.5,0,4.6,2.1,4.6,4.6v0c0,2.5-2.1,4.6-4.6,4.6H83.2c-2.5,0-4.6-2.1-4.6-4.6v0
	C78.6,40.6,80.7,38.6,83.2,38.6z"/>
<path class="st3" d="M41.8,72.2h7.1c2.2,0,4.1,1.8,4.1,4.1l0,0c0,2.2-1.8,4.1-4.1,4.1h-7.1c-2.2,0-4.1-1.8-4.1-4.1l0,0
	C37.7,74,39.5,72.2,41.8,72.2z"/>
<path class="st3" d="M68.7,55.4h75.1c2.7,0,4.9,2.2,4.9,4.9l0,0c0,2.7-2.2,4.9-4.9,4.9H68.7c-2.7,0-4.9-2.2-4.9-4.9l0,0
	C63.8,57.6,65.9,55.4,68.7,55.4z"/>
<path class="st3" d="M61.3,72.2h79.8c2.2,0,4.1,1.8,4.1,4.1l0,0c0,2.2-1.8,4.1-4.1,4.1H61.3c-2.2,0-4.1-1.8-4.1-4.1l0,0
	C57.2,74,59.1,72.2,61.3,72.2z"/>
<path class="st3" d="M61.3,90.1h83.3c2.2,0,4.1,1.8,4.1,4.1l0,0c0,2.2-1.8,4.1-4.1,4.1H61.3c-2.2,0-4.1-1.8-4.1-4.1l0,0
	C57.2,92,59.1,90.1,61.3,90.1z"/>
<path class="st3" d="M24.4,106.4h79.4c2.5,0,4.6,2.1,4.6,4.6v0c0,2.5-2.1,4.6-4.6,4.6H24.4c-2.5,0-4.6-2.1-4.6-4.6v0
	C19.8,108.5,21.9,106.4,24.4,106.4z"/>
<path class="st3" d="M66.7,96.9c0,0,12.5,5.8,1.4,10.7c-11.1,4.8,37.1,1.2,37.1,1.2l7.1-14.6L66.7,96.9z"/>
<path class="st3" d="M92.5,79c0,0,12.5,6-0.5,12.3s23.8,2.9,23.8,2.9l5.3-16.9L92.5,79z"/>
<path class="st3" d="M105.2,62.8c0,0,7.6,7.3-1.1,10.8s16.2,0.9,16.2,0.9s-8.9-6.2-1.1-11.7S105.2,62.8,105.2,62.8z"/>
<circle class="st3" cx="66.4" cy="43.8" r="4.6"/>
<path class="st3" d="M164.7,6.4h71.5c2,0,3.6,1.6,3.6,3.6v0c0,2-1.6,3.6-3.6,3.6h-71.5c-2,0-3.6-1.6-3.6-3.6v0
	C161,8.1,162.7,6.4,164.7,6.4z"/>
<path class="st3" d="M198.2,10.1c0,0,9.1,8.2,0,10.3s28.7,1.4,28.7,1.4s-7.3-3,0-10.5S198.2,10.1,198.2,10.1z"/>
<path class="st3" d="M195.4,20.8h88.4c2,0,3.6,1.6,3.6,3.6l0,0c0,2-1.6,3.6-3.6,3.6h-88.4c-2,0-3.6-1.6-3.6-3.6l0,0
	C191.8,22.4,193.4,20.8,195.4,20.8z"/>
<path class="st3" d="M219.8,24.5c0,0,9.6,5.9,0,10.7s32.2,0.7,32.2,0.7s-9.9-1.4-1.2-11.4C248.3,21.8,219.8,24.5,219.8,24.5z"/>
<path class="st3" d="M191.9,34.7h61.3c1.7,0,3.1,1.4,3.1,3.1l0,0c0,1.7-1.4,3.1-3.1,3.1h-61.3c-1.7,0-3.1-1.4-3.1-3.1l0,0
	C188.8,36.1,190.1,34.7,191.9,34.7z"/>
<path class="st3" d="M175.2,34.7h7.3c1.7,0,3.1,1.4,3.1,3.1l0,0c0,1.7-1.4,3.1-3.1,3.1h-7.3c-1.7,0-3.1-1.4-3.1-3.1l0,0
	C172.2,36.1,173.5,34.7,175.2,34.7z"/>
<path class="st3" d="M227.8,37.8c0,0,6.2,7.2,0,10s12,1.4,12,1.4c-2.7-3-2.8-7.5-0.2-10.6C244,32.6,227.8,37.8,227.8,37.8z"/>
<path class="st3" d="M197.2,47.8h71.2c2.1,0,3.8,1.7,3.8,3.8l0,0c0,2.1-1.7,3.8-3.8,3.8h-71.2c-2.1,0-3.8-1.7-3.8-3.8l0,0
	C193.4,49.5,195.1,47.8,197.2,47.8z"/>
<path class="st3" d="M219.2,61.3h32.7c1.8,0,3.3,1.5,3.3,3.3v0c0,1.8-1.5,3.3-3.3,3.3h-32.7c-1.8,0-3.3-1.5-3.3-3.3v0
	C215.9,62.8,217.4,61.3,219.2,61.3z"/>
<path class="st3" d="M281.2,47.8h6.5c2.1,0,3.8,1.7,3.8,3.8l0,0c0,2.1-1.7,3.8-3.8,3.8h-6.5c-2.1,0-3.8-1.7-3.8-3.8l0,0
	C277.5,49.5,279.2,47.8,281.2,47.8z"/>
<path class="st4" d="M44.7,168.4h63.2c2.4,0,4.3,1.9,4.3,4.3l0,0c0,2.4-1.9,4.3-4.3,4.3H44.7c-2.4,0-4.3-1.9-4.3-4.3l0,0
	C40.4,170.4,42.3,168.4,44.7,168.4z"/>
<path class="st4" d="M3.9,185.3h9.9c2.2,0,3.9,1.8,3.9,3.9v0c0,2.2-1.8,3.9-3.9,3.9H3.9c-2.2,0-3.9-1.8-3.9-3.9v0
	C0,187.1,1.8,185.3,3.9,185.3z"/>
<path class="st4" d="M27.4,185.3h80.2c2.2,0,3.9,1.8,3.9,3.9v0c0,2.2-1.8,3.9-3.9,3.9H27.4c-2.2,0-3.9-1.8-3.9-3.9v0
	C23.5,187.1,25.2,185.3,27.4,185.3z"/>
<path class="st4" d="M44.3,202.2H137c2.2,0,3.9,1.8,3.9,3.9v0c0,2.2-1.8,3.9-3.9,3.9H44.3c-2.2,0-3.9-1.8-3.9-3.9v0
	C40.4,204,42.1,202.2,44.3,202.2z"/>
<path class="st4" d="M6.2,219.1h108.3c2.3,0,4.1,1.8,4.1,4.1v0c0,2.3-1.8,4.1-4.1,4.1H6.2c-2.3,0-4.1-1.8-4.1-4.1v0
	C2.1,221,3.9,219.1,6.2,219.1z"/>
<path class="st4" d="M66.6,234.7H153c2.6,0,4.8,2.1,4.8,4.8v0c0,2.6-2.1,4.8-4.8,4.8H66.6c-2.6,0-4.8-2.1-4.8-4.8v0
	C61.8,236.8,64,234.7,66.6,234.7z"/>
<path class="st4" d="M61.8,189.2c0,0,6.6,8.4,0,14.6s13.1,3.4,13.1,3.4s-7.4-9.6-2-18.1S61.8,189.2,61.8,189.2z"/>
<path class="st4" d="M49.4,221.6c0,0,10.7-9.1,0-15.4s35.4,0,35.4,0s-7.4,9.7,0,15.4S49.4,221.6,49.4,221.6z"/>
<path class="st4" d="M109.8,239.5c0,0-4.6-12.1,0-16.2s-33.5,0-33.5,0s7.5,11.9,0,14.4C68.8,240.1,109.8,239.5,109.8,239.5z"/>
<path class="st4" d="M170.4,244.2h9.3c2.4,0,4.3,1.9,4.3,4.3l0,0c0,2.4-1.9,4.3-4.3,4.3h-9.3c-2.4,0-4.3-1.9-4.3-4.3l0,0
	C166,246.2,168,244.2,170.4,244.2z"/>
<path class="st4" d="M210.9,258.2h52.8c2.5,0,4.5,2,4.5,4.5v0c0,2.5-2,4.5-4.5,4.5h-52.8c-2.5,0-4.5-2-4.5-4.5v0
	C206.4,260.3,208.4,258.2,210.9,258.2z"/>
<path class="st4" d="M193.4,244.2h87.7c1.9,0,3.4,1.5,3.4,3.4l0,0c0,1.9-1.5,3.4-3.4,3.4h-87.7c-1.9,0-3.4-1.5-3.4-3.4l0,0
	C190,245.8,191.5,244.2,193.4,244.2z"/>
<path class="st4" d="M211.7,224.1h74.5c2.9,0,5.3,2.4,5.3,5.3l0,0c0,2.9-2.4,5.3-5.3,5.3h-74.5c-2.9,0-5.3-2.4-5.3-5.3l0,0
	C206.4,226.5,208.8,224.1,211.7,224.1z"/>
<path class="st4" d="M303.1,224.1h8.8c2.9,0,5.3,2.4,5.3,5.3l0,0c0,2.9-2.4,5.3-5.3,5.3h-8.8c-2.9,0-5.3-2.4-5.3-5.3l0,0
	C297.8,226.5,300.2,224.1,303.1,224.1z"/>
<path class="st4" d="M228.2,207.9h52.1c2.3,0,4.1,1.9,4.1,4.1v0c0,2.3-1.9,4.1-4.1,4.1h-52.1c-2.3,0-4.1-1.9-4.1-4.1v0
	C224.1,209.8,226,207.9,228.2,207.9z"/>
<path class="st4" d="M236.3,191.9h82.2c2.7,0,4.8,2.2,4.8,4.8l0,0c0,2.7-2.2,4.8-4.8,4.8h-82.2c-2.7,0-4.8-2.2-4.8-4.8l0,0
	C231.5,194,233.7,191.9,236.3,191.9z"/>
<path class="st4" d="M274.2,196.7c0,0-3.8,11.2,0,15.4s-42.7,0-42.7,0l8.9-15.4H274.2z"/>
<path class="st4" d="M248.9,229.5c0,0-10.8-10.8,2.4-17.4s-19.8,0-19.8,0l-15.6,15.2L248.9,229.5z"/>
<path class="st4" d="M222.5,245.9c1.6-1.6,14.9-2.8,0-15.4c-6.6-7.2,17.9,1.4,17.9,1.4s-6.6,8.8,0,14
	C247,251.1,222.5,245.9,222.5,245.9z"/>
<circle class="st4" cx="277.5" cy="262.8" r="4.8"/>
<path class="st4" d="M253,94h71.2c2.3,0,4.1,1.8,4.1,4.1v0c0,2.3-1.8,4.1-4.1,4.1H253c-2.3,0-4.1-1.8-4.1-4.1v0
	C248.9,95.8,250.8,94,253,94z"/>
<path class="st4" d="M258.5,109.9h38c2.3,0,4.1,1.9,4.1,4.2l0,0c0,2.3-1.9,4.2-4.1,4.2h-38c-2.3,0-4.1-1.9-4.1-4.2l0,0
	C254.4,111.8,256.3,109.9,258.5,109.9z"/>
<path class="st4" d="M268.4,126.5H317c2.4,0,4.3,1.9,4.3,4.3l0,0c0,2.4-1.9,4.3-4.3,4.3h-48.7c-2.4,0-4.3-1.9-4.3-4.3l0,0
	C264.1,128.4,266,126.5,268.4,126.5z"/>
<path class="st4" d="M262.4,145h38.7c1.8,0,3.3,1.5,3.3,3.3l0,0c0,1.8-1.5,3.3-3.3,3.3h-38.7c-1.8,0-3.3-1.5-3.3-3.3l0,0
	C259.1,146.4,260.6,145,262.4,145z"/>
<path class="st4" d="M315.1,145h19c1.8,0,3.3,1.5,3.3,3.3l0,0c0,1.8-1.5,3.3-3.3,3.3h-19c-1.8,0-3.3-1.5-3.3-3.3l0,0
	C311.8,146.4,313.3,145,315.1,145z"/>
<path class="st4" d="M262.2,160.8h80.3c1.7,0,3.1,1.4,3.1,3.1v1.5c0,1.7-1.4,3.1-3.1,3.1h-80.3c-1.7,0-3.1-1.4-3.1-3.1v-1.5
	C259.1,162.1,260.5,160.8,262.2,160.8z"/>
<path class="st4" d="M355.6,160.8h4.3c2.1,0,3.8,1.7,3.8,3.8l0,0c0,2.1-1.7,3.8-3.8,3.8h-4.3c-2.1,0-3.8-1.7-3.8-3.8l0,0
	C351.8,162.5,353.5,160.8,355.6,160.8z"/>
<path class="st4" d="M277.6,98c0,0,11.4,6.9,0,16c-5.7,6.9,18.6,0,18.6,0s-10.7-8.6,0-16S277.6,98,277.6,98z"/>
<path class="st4" d="M282.3,164.6c0,0,9.8-7.7-0.5-16.4c-2.3-3.3,16.1,0,16.1,0s-10.3,8.9,0,16.4S282.3,164.6,282.3,164.6z"/>
<circle class="st5" cx="181.5" cy="142" r="92.7"/>
<circle class="st6" cx="137.3" cy="112.7" r="18.8"/>
<circle class="st6" cx="180.5" cy="118.2" r="8.3"/>
<circle class="st6" cx="176.9" cy="83" r="13"/>
</svg>
