<svg id="Calque_1" data-name="Calque 1" xmlns="http://www.w3.org/2000/svg" viewBox="0 0 47.19 53.03"><defs><style>.cls-1{fill:#fff;}</style></defs><title>Sketch</title><path class="cls-1" d="M41.27,25.16a3.75,3.75,0,0,0-2.47-2.82,14,14,0,0,0-8.15,0c-3,1.84-1.43,4.08,0,4.37s11.31,1.62,13,3.05,5.22,4.81,0,10.26c-6.66,4.77-16.3.4-16.3.4a7.69,7.69,0,0,1-3.5-5.33c0-1.73.58-1.55,1.09-1.61s2.53,0,2.53,0,.46-.06.69,1.2,1,3.39,4.53,3.51,6.54.22,8-.75,2-3.73.12-4.48-9.71-1.26-12.23-2.52-4.7-2.41-3.55-8.21,13-4.42,14.57-3.79,4.48,1,5.69,5.4a8.27,8.27,0,0,1,.23,1.72s0,.46-.64.57a25.89,25.89,0,0,1-2.92.06S41.65,26.2,41.27,25.16Z" transform="translate(-4.41 -1.48)"/><path class="cls-1" d="M19,49.37l3.32-1.66,5.77,3.52,19.72-11.6v-23L28.11,4.8,8,16.41v22.8l6.42,3.94S18,44,18,40.45s.12-22.11.42-22.15,3.35,0,3.35,0L22,41.05s.34,4.37-3.21,5.34a8.91,8.91,0,0,1-6.15-.4L6.14,42.43S4.25,41.28,4.42,37.5s0-20.95,0-20.95.35-2.47,2.13-3.27L25.65,2.2a4.44,4.44,0,0,1,4.82,0c2.59,1.61,19,11,19,11s2.12.92,2.12,4.47v22A4.25,4.25,0,0,1,49.3,43c-2.3,1.43-18.88,10.9-18.88,10.9a4,4,0,0,1-4.37,0C23.87,52.36,20.09,50.22,19,49.37Z" transform="translate(-4.41 -1.48)"/></svg>