<svg id="Calque_1" data-name="Calque 1" xmlns="http://www.w3.org/2000/svg" viewBox="0 0 55.52 34.57"><defs><style>.cls-1{fill:#fff;}</style></defs><title>php</title><path class="cls-1" d="M.24,27.18c.13-.59.23-1.2.39-1.78a14.3,14.3,0,0,1,4.6-7,28.45,28.45,0,0,1,11.66-6,42.63,42.63,0,0,1,15.62-1.22,36,36,0,0,1,14,4.16,20.42,20.42,0,0,1,6.88,5.85,12.23,12.23,0,0,1,2.26,5.33,1.07,1.07,0,0,0,.09.19v2.92a2.67,2.67,0,0,0-.09.26,12.87,12.87,0,0,1-3.48,6.84,24.46,24.46,0,0,1-10,6.34,42.23,42.23,0,0,1-24.58,1.15A28.94,28.94,0,0,1,5.9,38.7,14.82,14.82,0,0,1,.63,31.14C.47,30.55.37,30,.24,29.35ZM8.62,37.82h2.19c1,0,1,0,1.15-1,.21-1.2.44-2.4.66-3.6,1.13,0,2.19,0,3.25,0a6,6,0,0,0,5-2.48,8.82,8.82,0,0,0,1.66-6,4.25,4.25,0,0,0-4.71-4.2c-2,.1-3.9,0-5.85,0-.38,0-.52.08-.59.49-.47,2.95-1,5.9-1.46,8.86Zm28.15,0c.25-1.39.52-2.77.75-4.15.06-.34.19-.41.49-.4,1,0,2,0,3,0a5.94,5.94,0,0,0,4.91-2.54,8.81,8.81,0,0,0,1.58-6.26A4.12,4.12,0,0,0,43,20.56H36.45c-1,5.74-1.9,11.46-2.85,17.22Zm-3.7-4.55c.47-3,1-6,1.4-9a2.82,2.82,0,0,0-2.12-3.42,7,7,0,0,0-1.65-.21c-1.12,0-2.23,0-3.4,0l.79-4.61H24.88L22,33.22h3.12c0-.17.07-.31.1-.45.5-3,1-6,1.53-9,0-.15.24-.37.37-.37,1.05,0,2.1,0,3.14,0a.89.89,0,0,1,.9.85,3.54,3.54,0,0,1,0,.92c-.18,1.34-.38,2.68-.59,4s-.45,2.69-.68,4.07Z" transform="translate(-0.24 -10.99)"/><path class="cls-1" d="M13,30.54c.18-1.08.34-2.11.5-3.14.21-1.24.43-2.48.62-3.73.05-.32.15-.43.47-.42.91,0,1.81,0,2.71,0a1.75,1.75,0,0,1,1.82,1.53,5.82,5.82,0,0,1-.83,4.3,3.07,3.07,0,0,1-2.74,1.45Z" transform="translate(-0.24 -10.99)"/><path class="cls-1" d="M38,30.54l1.19-7.25c1.18,0,2.34-.06,3.49,0A1.73,1.73,0,0,1,44.15,25a6.63,6.63,0,0,1-.53,3.49,3.29,3.29,0,0,1-3.22,2.06Z" transform="translate(-0.24 -10.99)"/></svg>