<svg id="Calque_1" data-name="Calque 1" xmlns="http://www.w3.org/2000/svg" viewBox="0 0 56.23 25.15"><defs><style>.cls-1{fill:#fff;}</style></defs><title>WebGL</title><path class="cls-1" d="M22.74,14.75l1.38.1A31,31,0,0,1,34.79,17.4a19.58,19.58,0,0,1,5.12,3.2.69.69,0,0,1,.11.13c-.43-.22-.85-.45-1.28-.66a25.25,25.25,0,0,0-6.62-2,38.4,38.4,0,0,0-8.36-.51A30.61,30.61,0,0,0,13.5,19.69a17.74,17.74,0,0,0-3.14,1.65.26.26,0,0,0-.13.32q.94,4.05,1.88,8.1a1.13,1.13,0,0,0,.08.19l2.42-8.7c.58,0,1.15,0,1.72,0,.07,0,.15.13.18.22l1.29,4.61c.33,1.2.66,2.39,1,3.59a.45.45,0,0,0,.12.21l2-8.63h2L19.82,32.6H18l-2.47-8.84h-.05c-.06.19-.11.38-.17.57-.75,2.69-1.51,5.37-2.26,8.06-.05.18-.12.24-.31.23H11.24L8.63,22.68,8.35,23a6.63,6.63,0,0,0-1.83,3.27,5.42,5.42,0,0,0,.92,4.24,10.68,10.68,0,0,0,3.41,3.11,21.84,21.84,0,0,0,6,2.47,33.33,33.33,0,0,0,6.44,1A38.42,38.42,0,0,0,28.78,37a28.78,28.78,0,0,0,9.57-2.26c.45-.2.89-.44,1.34-.67l.22-.11,0,0c-.48.37-1,.76-1.44,1.11a24.42,24.42,0,0,1-7.17,3.38,33.41,33.41,0,0,1-6.66,1.23,35.91,35.91,0,0,1-5.68,0A31,31,0,0,1,7.54,36.89,16.87,16.87,0,0,1,2.32,33.1,9,9,0,0,1,0,28.61c0-.26-.08-.52-.12-.78v-1c0-.07,0-.14,0-.21A7.38,7.38,0,0,1,.66,24a11.64,11.64,0,0,1,3.65-4.29,23.06,23.06,0,0,1,7.5-3.62,34.1,34.1,0,0,1,7.43-1.28l1.29-.09Z" transform="translate(0.11 -14.75)"/><path class="cls-1" d="M20.53,14.75l-1.29.09a34.1,34.1,0,0,0-7.43,1.28,23.06,23.06,0,0,0-7.5,3.62A11.64,11.64,0,0,0,.66,24a7.38,7.38,0,0,0-.73,2.6c0,.07,0,.14,0,.21V14.75Z" transform="translate(0.11 -14.75)"/><path class="cls-1" d="M45.23,28.58H43V26.89h4.11c.17,0,.25,0,.24.24V32.3c0,.06,0,.12,0,.22H45.94s-.1-.09-.11-.14c-.07-.33-.13-.66-.2-1a1.06,1.06,0,0,0-.15.14,3.44,3.44,0,0,1-2.91,1.25A4.78,4.78,0,0,1,39,31.19a5.26,5.26,0,0,1-1.32-3,6.22,6.22,0,0,1,.48-3.49,4.68,4.68,0,0,1,4.69-2.89,4.28,4.28,0,0,1,3.78,2,3.76,3.76,0,0,1,.51,1.62H45c0-.12-.07-.25-.12-.37A2,2,0,0,0,43,23.74a2.56,2.56,0,0,0-2.83,2,5.11,5.11,0,0,0,.07,3.3,2.61,2.61,0,0,0,3,1.76,2.15,2.15,0,0,0,2-1.93C45.22,28.79,45.22,28.7,45.23,28.58Z" transform="translate(0.11 -14.75)"/><path class="cls-1" d="M31.1,31.94v.66H29.72V22.3h1.43v3.45l.12-.07a2.94,2.94,0,0,1,4.55.51,4.71,4.71,0,0,1,.63,2.91,5.13,5.13,0,0,1-.61,2.13,3.07,3.07,0,0,1-3.57,1.48A2.35,2.35,0,0,1,31.1,31.94ZM35,28.76a10.75,10.75,0,0,0-.14-1.14,1.68,1.68,0,0,0-1.74-1.47,1.6,1.6,0,0,0-1.73,1.31,8.2,8.2,0,0,0-.23,1.64,2.66,2.66,0,0,0,.23,1.33A1.77,1.77,0,0,0,33,31.54a1.63,1.63,0,0,0,1.61-1.1A4.4,4.4,0,0,0,35,28.76Z" transform="translate(0.11 -14.75)"/><path class="cls-1" d="M56.11,30.58v1.91H48.77V22.07H51v8.51Z" transform="translate(0.11 -14.75)"/><path class="cls-1" d="M28.76,29.33H23.4a1.92,1.92,0,0,0,1.5,2.17,1.88,1.88,0,0,0,2.33-1.4h1.45c0,.11,0,.21-.05.3a3.12,3.12,0,0,1-2.86,2.4,4.34,4.34,0,0,1-1.56-.11A3.19,3.19,0,0,1,22,30.19a5.57,5.57,0,0,1,.17-3.08,3.36,3.36,0,0,1,3.78-2.26,2.85,2.85,0,0,1,2.44,1.9A6,6,0,0,1,28.76,29.33Zm-5.35-1.22h3.83a1.84,1.84,0,0,0-2-2A2,2,0,0,0,23.41,28.11Z" transform="translate(0.11 -14.75)"/><path class="cls-1" d="M35,28.76a4.4,4.4,0,0,1-.32,1.68A1.63,1.63,0,0,1,33,31.54a1.77,1.77,0,0,1-1.68-1.11,2.66,2.66,0,0,1-.23-1.33,8.2,8.2,0,0,1,.23-1.64,1.6,1.6,0,0,1,1.73-1.31,1.68,1.68,0,0,1,1.74,1.47A10.75,10.75,0,0,1,35,28.76Z" transform="translate(0.11 -14.75)"/><path class="cls-1" d="M23.41,28.11a2,2,0,0,1,1.85-2,1.84,1.84,0,0,1,2,2Z" transform="translate(0.11 -14.75)"/></svg>